Patient4_TMGait_0pt4_01_left_18_EMG.mot
version=1
nRows=23
nColumns=33
inDegrees=no
endheader
time	1LAddLong	2LGlutMax	3LGlutMed	4LIliopsoas	5LSemiMemb	6LBicFemLong	7LRecFem	8LVastMed	9LVastLat	10LGasMed	11LTibAnt	12lTibPost	13LPeroneusLong	14LSol	15LExtDigLong	16LFlexDigLong	17RAddLong	18RGlutMax	19RGlutMed	20RIliopsoas	21RSemiMemb	22RBicFemLong	23RRecFem	24RVastMed	25RVastLat	26RGasMed	27RTibAnt	28RTibPost	29RPeroneusLong	30RSol	31RExtDigLong	32RFlexDigLong
21.04	0.002594	0.15732	-0.060577	0.02182	0.003357	-0.012054	-0.35278	0.010681	0.34546	0.026855	-0.052643	0.007629	-0.045013	0.15503	-0.040283	-0.05188	-0.090332	0.73334	1.098	0.002136	0.18402	0.11581	-0.20966	0.027008	0.18585	-0.035858	0.071259	-0.010681	-1.2709	-0.18829	-0.000763	-0.020905
21.041	0.000916	0.14755	-0.057983	0.013123	-0.002136	-0.028229	-0.33798	0.01236	0.33981	0.035858	-0.087128	0.006256	-0.046692	0.038605	-0.22156	-0.018463	-0.03479	0.57526	0.61462	0.036163	-0.11902	0.103	-0.33005	-0.17288	0.19592	-0.025177	0.050659	-0.00824	-1.1685	-0.06958	-0.002441	-0.019226
21.042	0.002747	0.14038	-0.01709	-0.012512	0.002899	-0.031891	-0.28915	0.007324	0.32867	0.03418	-0.045624	0.001678	-0.05722	-0.015259	-0.13977	-0.010071	0.008392	0.50552	0.59525	0.005341	-0.26245	0.012665	-0.23514	-0.085144	0.007782	-0.013123	-0.13336	-0.01358	-0.38208	-0.11765	0.007324	-0.01236
21.043	-0.002136	0.13809	0.014191	-0.029144	0.004578	-0.021667	-0.31662	0.014954	0.34347	0.045929	-0.037842	0.012054	-0.08194	0.10162	-0.046387	-0.005951	0.014038	0.46371	0.21347	-0.007019	-0.38696	-0.082855	-0.045471	0.036469	-0.40939	-0.013275	-0.1329	-0.010986	0.57785	0.025635	-0.002136	-0.009003
21.044	-0.001526	0.10056	0.034637	-0.018311	-0.001068	-0.031433	-0.3862	0.013275	0.31067	0.081329	0.018921	0.005341	-0.067902	0.10712	0.016022	-0.004272	-0.059052	0.4274	0.64423	-0.003967	0.028076	-0.053864	-0.057678	0.2449	-0.47363	-0.019531	0.015106	-0.013123	-1.5643	0.049591	-0.005035	-0.011292
21.045	-0.01358	0.080414	0.060425	-0.002747	0.001831	-0.014496	-0.34714	0.011292	0.31265	0.14572	-0.023651	0.008698	-0.045776	0.10574	0.05249	0.002899	-0.054169	0.42435	1.1049	-0.020294	0.45242	-0.010376	-0.095367	0.21561	-0.26077	-0.020142	0.11078	-0.015411	-0.62592	0.09613	-0.002289	-0.010376
21.046	0.001068	0.054474	0.10346	-0.00412	0.002594	-0.010986	-0.33493	0.014648	0.31265	0.15381	-0.018768	0.008545	-0.032959	0.083008	-0.019226	-0.000916	-0.016327	0.32242	0.70511	-0.03418	0.36453	-0.16892	-0.1181	0.21255	-0.1474	-0.009766	-0.063782	-0.019836	1.4946	0.1001	-0.002136	-0.011597
21.047	0.002289	0.050049	0.11658	0.006104	0.001526	-0.024109	-0.36957	0.028839	0.30731	0.17578	0.001984	0.012512	-0.032043	0.10422	-0.12482	-0.003357	0.032501	0.28336	-0.044861	0.062714	0.17716	-0.15717	-0.15396	0.11704	-0.095978	0.001831	-0.10529	-0.016327	1.089	-0.054169	0.001373	-0.009003
21.048	-0.001984	0.040436	0.1181	-0.005951	0.007019	-0.018616	-0.46921	0.019836	0.29602	0.14252	-0.006714	0.005951	-0.052032	0.089111	-0.10742	0.007629	0.071411	0.2832	-0.95962	0.034943	-0.12787	-0.052032	-0.17288	0.010681	-0.10284	0.008087	-0.10071	-0.004425	-0.38971	-0.15961	0.000916	-0.00885
21.049	0.00351	0.021667	0.12161	-0.007782	0.005035	-0.027313	-0.63156	0.019379	0.25513	-0.072327	-0.034027	0.009308	-0.05127	-0.031128	0	0.002747	0.065002	0.18692	-0.20096	0.014496	-0.2771	0.007324	-0.18295	-0.03952	-0.083618	0.01297	-0.036926	-0.012512	0.12894	-0.23621	0.002441	-0.00412
21.05	-0.00473	0.014648	0.12528	-0.000305	0.006561	-0.005188	-0.65445	0.066071	0.2356	-0.20767	-0.061493	0.003204	-0.031738	-0.071259	0.03479	-0.001831	0.06012	0.15366	0.87326	-0.019226	-0.699	0.045929	-0.30868	-0.088501	-0.065308	-0.001831	-0.18692	-0.022125	1.1746	-0.1741	0.001984	-0.002289
21.051	-0.007935	-0.000458	0.1239	-0.02121	-0.002441	-0.015259	-0.56198	0.022888	0.22812	-0.12589	-0.066223	0.004425	-0.027313	-0.066833	0.032043	-0.000916	0.047913	0.010834	-0.045624	-0.008698	-1.06	0.074768	-0.24689	-0.13687	-0.04776	-0.023193	-0.21683	-0.032043	0.47897	-0.009155	-0.001068	-0.008392
21.052	-0.000916	0.022583	0.12177	-0.019684	-0.000458	-0.008087	-0.53986	-0.018616	0.22522	-0.02533	-0.023346	0.003204	-0.011444	-0.011902	0.067902	-0.00412	0.009308	0.003204	0.1561	0.159	-0.52475	0.096741	-0.24017	0.014648	-0.034027	0.001373	-0.082397	-0.027313	-0.87952	0.14206	-0.003052	-0.013275
21.053	0.001373	0.006561	0.11917	-0.016174	-0.003204	-0.008545	-0.43869	-0.014343	0.21378	0.000916	0.015411	0.003967	-0.027924	0.016632	0.066986	-0.008087	-0.088348	-0.011292	0.38605	0.21683	0.72861	0.003357	-0.34393	0.18356	0.01236	0.004425	0.060425	-0.051117	-1.1874	0.21118	-0.002747	-0.012512
21.054	-0.003815	-0.037537	0.096283	0.005951	-0.007629	-0.011139	-0.34988	0.012512	0.20035	0.06485	0.041046	0.002594	-0.03952	0.001373	0.043335	0.004425	-0.10941	-0.098724	0.32074	0.13473	0.69107	-0.11429	-0.44937	0.14297	-0.019836	-0.005035	0.038452	-0.17441	-0.12482	0.12817	0	-0.013123
21.055	-0.003662	-0.075836	0.086365	0.023499	-0.002136	-0.021973	-0.24628	0.010071	0.18616	0.033112	-0.009766	0.010834	-0.021057	0.024261	0.030518	-0.007324	-0.018921	-0.17578	1.0789	0.08606	-0.020447	-0.17609	-0.40131	-0.017242	-0.021362	0.014648	-0.003662	0.028992	0.27359	-0.092163	0.00061	-0.023193
21.056	-0.00473	-0.08255	0.078583	0.05249	-0.00351	-0.0383	-0.22247	0.014191	0.1741	0.013275	-0.023041	0.0177	-0.057831	0.027618	-0.018921	-0.000916	0.033417	-0.16632	0.47485	0.072021	-0.33646	-0.10315	-0.26947	-0.13504	-0.037689	0.020142	-0.042419	0.11307	0.32913	-0.16922	-0.003052	-0.008545
21.057	-0.002136	-0.072327	0.090942	0.038147	0.001221	-0.029144	-0.2153	0.016785	0.15671	0.029449	-0.0177	0.011749	-0.095978	0.020142	0.050812	-0.011749	0.028381	-0.11154	0.54825	-0.036621	-0.28976	-0.039368	-0.24719	-0.20035	-0.042725	0.023804	-0.065308	0.043182	-0.59006	-0.067596	-0.005798	0.000763
21.058	0.003204	-0.10437	0.085754	0.024872	0.003662	-0.032196	-0.22095	0.004272	0.17227	0.027008	0.02594	0.014496	-0.079193	0.025024	1.1374	0.003967	-0.018768	-0.13931	0.071869	-0.14267	-0.14343	0.046539	-0.28229	-0.11673	-0.042725	0.002747	-0.019684	0.00412	-0.75043	-0.16159	-0.001831	0.004578
21.059	-0.005798	-0.12024	0.064087	0.008392	0.000305	-0.033417	-0.2269	0.00885	0.15961	0.044861	0.11459	0.014496	-0.073395	0.098114	0.49942	0.00351	0.026398	-0.25833	0.15976	-0.20264	-0.057831	-0.010071	-0.25665	-0.098724	-0.049133	-0.015717	-0.025024	-0.044556	-0.58929	-0.18372	-0.001678	0.005341
21.06	-0.002594	-0.10193	0.06073	-0.003052	0.003967	-0.031738	-0.19623	0.006409	0.13931	0.033417	0.19043	0.011292	0.006866	0.14587	-0.51071	0.013275	0.073547	-0.38116	-0.49164	-0.016479	0.25711	-0.068665	-0.21469	-0.20859	-0.078278	-0.06897	-0.083466	-0.2005	-0.3537	-0.074768	0.000916	0.009155
21.061	-0.002899	-0.059204	0.11612	0.006561	0.004425	-0.017853	-0.24902	0.00885	0.12604	0.042877	0.47409	0.010071	-0.022583	0.14801	0.31403	0	0.019073	-0.36575	-0.72464	0.050354	-0.36911	-0.078278	-0.16373	-0.13351	-0.050201	-0.049286	-0.046082	-0.76035	-0.10773	0.14114	0.002441	-0.000305
21.062	-0.006561	-0.12665	0.15564	0.0177	0.001221	-0.016479	-0.2861	0.008545	0.10437	0.023956	0.13534	0.006409	-0.020752	0.17441	-0.002136	0.016479	-0.112	-0.56747	-1.0568	0.15549	-0.14954	-0.050964	-0.10025	0.000458	-0.097809	-0.054321	0.005188	0.033264	-0.21072	0.5307	0.001984	-0.005798
